<svg xmlns="http://www.w3.org/2000/svg" width="410" height="404" viewBox="0 0 410 404" fill="none">
  <path d="M399.641 59.524L214.118 389.048C210.52 395.592 201.12 395.592 197.522 389.048L12.0006 59.524C7.96318 52.1754 14.3808 43.4224 22.6488 44.8021L204.122 75.6165C205.126 75.784 206.152 75.784 207.156 75.6165L388.629 44.8021C396.897 43.4224 403.315 52.1754 399.278 59.524H399.641Z" fill="url(#paint0_linear)"/>
  <path d="M292.965 4.25132L155.859 31.1176C153.999 31.4643 152.619 33.0864 152.612 34.9806C152.559 47.0626 146.9 105.161 100.74 131.633C100.019 132.044 99.4924 132.725 99.2758 133.52C99.0591 134.314 99.1718 135.172 99.5893 135.879L142.43 212.05C143.663 214.245 146.321 214.884 148.399 213.494C175.237 195.71 210.7 162.573 226.422 105.434C227.177 102.728 225.539 99.954 222.801 99.6044L180.709 94.1881C178.175 93.8639 176.56 91.3385 177.402 88.9301L206.014 7.27815C207.027 4.38049 204.406 1.52513 201.43 2.0507L292.965 4.25132Z" fill="url(#paint1_linear)"/>
  <defs>
    <linearGradient id="paint0_linear" x1="6.00064" y1="32.9999" x2="235.619" y2="444.999" gradientUnits="userSpaceOnUse">
      <stop stop-color="#FDBA74"/>
      <stop offset="1" stop-color="#F97316"/>
    </linearGradient>
    <linearGradient id="paint1_linear" x1="117.71" y1="7.55622" x2="214.236" y2="210.243" gradientUnits="userSpaceOnUse">
      <stop stop-color="#FDE68A"/>
      <stop offset="1" stop-color="#F59E0B"/>
    </linearGradient>
  </defs>
</svg>
